# xmcd
#
# Track frame offsets: 
#        150
#        15933
#        30584
#        46562
#        62486
#        75907
#        92369
#        109467
#        125246
#        140776
#        153862
#        169669
#
# Disc length: 2459 seconds
#
# Revision: 0
# Processed by: cddbd v1.5.2PL0 Copyright (c) Steve Scherf et al.
# Submitted via: ExactAudioCopy v0.99pb4
#
DISCID=8709990c
DTITLE=Daniela Romo - Mujer De Todos, Mujer De Nadie
DYEAR=1986
DGENRE=Pop
TTITLE0=De Mí Enamórate
TTITLE1=Veneno Para Dos
TTITLE2=No, No Le Creas
TTITLE3=Coco Loco
TTITLE4=Me Alimento De Ti
TTITLE5=Ayer Pensé
TTITLE6=Confesiones
TTITLE7=Adelante Corazón
TTITLE8=La Batalla Del Amor
TTITLE9=Mujer De Todos, Mujer De Nadie
TTITLE10=Bastará
TTITLE11=El Mundo Acabará
EXTD=
EXTT0=
EXTT1=
EXTT2=
EXTT3=
EXTT4=
EXTT5=
EXTT6=
EXTT7=
EXTT8=
EXTT9=
EXTT10=
EXTT11=
PLAYORDER=
